<svg width="26" height="27" viewBox="0 0 26 27">
<path d="M18.2954 3.85721H19.2583V7.71441H18.2954C18.04 7.71441 17.7951 7.81601 17.6145 7.99685C17.4339 8.17769 17.3325 8.42297 17.3325 8.67872V10.6073C17.3325 10.8631 17.4339 11.1083 17.6145 11.2892C17.7951 11.47 18.04 11.5716 18.2954 11.5716H24.0729C24.3283 11.5716 24.5733 11.47 24.7538 11.2892C24.9344 11.1083 25.0359 10.8631 25.0359 10.6073V8.67872C25.0359 8.42297 24.9344 8.17769 24.7538 7.99685C24.5733 7.81601 24.3283 7.71441 24.0729 7.71441H23.11V0.964302C23.11 0.708553 23.0086 0.463279 22.828 0.282437C22.6474 0.101596 22.4025 0 22.1471 0H19.2583C19.0798 0.000151261 18.9048 0.0499982 18.753 0.143974C18.6011 0.237949 18.4783 0.372353 18.3983 0.532174L17.4354 2.46078C17.3618 2.60773 17.327 2.77108 17.3342 2.93531C17.3414 3.09954 17.3904 3.25919 17.4766 3.3991C17.5628 3.53902 17.6832 3.65455 17.8265 3.73473C17.9698 3.81491 18.1312 3.85707 18.2954 3.85721ZM19.8692 13.6756C19.0846 13.8908 18.3683 14.3039 17.7888 14.8755C17.2093 15.4471 16.7859 16.1581 16.5591 16.9404C15.7015 20.0171 17.8356 22.8329 20.7027 23.1197C20.3247 23.4391 19.9019 23.7013 19.4479 23.8978C18.9923 24.1027 18.7979 24.6494 18.9556 25.1237L19.5514 26.3291C19.7241 26.8492 20.3055 27.1421 20.8092 26.9263C24.2998 25.4341 26 23.2132 26 18.9708V18.3217C25.9988 15.2354 23.0871 12.8168 19.8704 13.6756H19.8692ZM21.1842 19.5271C20.9461 19.5271 20.7134 19.4564 20.5154 19.324C20.3175 19.1915 20.1632 19.0033 20.0721 18.783C19.981 18.5628 19.9572 18.3204 20.0036 18.0866C20.0501 17.8528 20.1647 17.638 20.333 17.4694C20.5014 17.3008 20.7159 17.186 20.9493 17.1395C21.1828 17.093 21.4248 17.1169 21.6448 17.2081C21.8647 17.2993 22.0527 17.4538 22.185 17.6521C22.3172 17.8503 22.3878 18.0833 22.3878 18.3217C22.3878 18.6414 22.261 18.948 22.0353 19.1741C21.8096 19.4001 21.5034 19.5271 21.1842 19.5271ZM10.592 19.286H7.70319V0.964302C7.70319 0.708553 7.60174 0.463279 7.42116 0.282437C7.24057 0.101596 6.99565 0 6.74027 0H4.81441C4.55903 0 4.3141 0.101596 4.13352 0.282437C3.95294 0.463279 3.85149 0.708553 3.85149 0.964302V19.286H0.962706C0.10871 19.286 -0.322801 20.3251 0.283241 20.932L5.09787 26.7178C5.27844 26.8985 5.52327 27 5.77854 27C6.03382 27 6.27865 26.8985 6.45921 26.7178L11.2738 20.932C11.8769 20.3263 11.4478 19.286 10.592 19.286Z" fill="#BE1622"/>
</svg>
