<svg width="46" height="46" viewBox="0 0 46 46">
<path d="M46 23C46 35.7054 35.7017 46 23 46C10.2983 46 0 35.7054 0 23C0 10.3021 10.2983 0 23 0C35.7017 0 46 10.3021 46 23ZM23 27.6371C20.6439 27.6371 18.7339 29.5471 18.7339 31.9032C18.7339 34.2593 20.6439 36.1694 23 36.1694C25.3561 36.1694 27.2661 34.2593 27.2661 31.9032C27.2661 29.5471 25.3561 27.6371 23 27.6371ZM18.9497 12.3026L19.6376 24.9155C19.6698 25.5057 20.1578 25.9677 20.7489 25.9677H25.2511C25.8422 25.9677 26.3302 25.5057 26.3624 24.9155L27.0503 12.3026C27.0851 11.6651 26.5775 11.129 25.9391 11.129H20.0608C19.4224 11.129 18.9149 11.6651 18.9497 12.3026Z" fill="#BE1622"/>
</svg>
