<svg width="26" height="27" viewBox="0 0 26 27">
<path d="M10.592 19.2857H7.70319V0.964286C7.70319 0.708541 7.60174 0.463271 7.42116 0.282433C7.24057 0.101594 6.99565 0 6.74027 0H4.81441C4.55903 0 4.3141 0.101594 4.13352 0.282433C3.95294 0.463271 3.85149 0.708541 3.85149 0.964286V19.2857H0.962706C0.10871 19.2857 -0.322801 20.3247 0.283241 20.9316L5.09787 26.7173C5.27844 26.898 5.52327 26.9996 5.77854 26.9996C6.03382 26.9996 6.27865 26.898 6.45921 26.7173L11.2738 20.9316C11.8769 20.3259 11.4478 19.2857 10.592 19.2857ZM24.0729 23.1429H23.11V16.3929C23.11 16.1371 23.0086 15.8918 22.828 15.711C22.6474 15.5302 22.4025 15.4286 22.1471 15.4286H19.2583C19.0798 15.4287 18.9048 15.4786 18.753 15.5725C18.6011 15.6665 18.4783 15.8009 18.3983 15.9607L17.4354 17.8893C17.3618 18.0363 17.327 18.1996 17.3342 18.3638C17.3414 18.5281 17.3904 18.6877 17.4766 18.8276C17.5628 18.9675 17.6832 19.0831 17.8265 19.1632C17.9698 19.2434 18.1312 19.2856 18.2954 19.2857H19.2583V23.1429H18.2954C18.04 23.1429 17.7951 23.2445 17.6145 23.4253C17.4339 23.6061 17.3325 23.8514 17.3325 24.1071V26.0357C17.3325 26.2915 17.4339 26.5367 17.6145 26.7176C17.7951 26.8984 18.04 27 18.2954 27H24.0729C24.3283 27 24.5733 26.8984 24.7538 26.7176C24.9344 26.5367 25.0359 26.2915 25.0359 26.0357V24.1071C25.0359 23.8514 24.9344 23.6061 24.7538 23.4253C24.5733 23.2445 24.3283 23.1429 24.0729 23.1429ZM19.8704 0.175379C19.0858 0.39055 18.3696 0.803688 17.79 1.37528C17.2105 1.94688 16.7871 2.65781 16.5603 3.44009C15.7015 6.51676 17.8356 9.33248 20.7027 9.61935C20.3247 9.93873 19.9019 10.2009 19.4479 10.3974C18.9923 10.6023 18.7979 11.149 18.9556 11.6233L19.5514 12.8286C19.7241 13.3487 20.3055 13.6416 20.8092 13.4259C24.2998 11.933 26 9.71277 26 5.47051V4.82143C25.9988 1.73511 23.0871 -0.683438 19.8704 0.175379ZM21.1842 6.02679C20.9461 6.02679 20.7134 5.95609 20.5154 5.82365C20.3175 5.6912 20.1632 5.50295 20.0721 5.2827C19.981 5.06245 19.9572 4.82009 20.0036 4.58627C20.0501 4.35246 20.1647 4.13768 20.333 3.96911C20.5014 3.80054 20.7159 3.68574 20.9493 3.63923C21.1828 3.59272 21.4248 3.61659 21.6448 3.70782C21.8647 3.79905 22.0527 3.95355 22.185 4.15177C22.3172 4.34999 22.3878 4.58303 22.3878 4.82143C22.3878 5.14111 22.261 5.4477 22.0353 5.67374C21.8096 5.89979 21.5034 6.02679 21.1842 6.02679Z" fill="#BE1622"/>
</svg>
