<svg width="26" height="18" viewBox="0 0 26 18" fill="none" xmlns="http://www.w3.org/2000/svg">
<path d="M25.8508 10.6919L22.5816 16.5116C22.3272 16.9645 21.963 17.3403 21.5251 17.6014C21.0873 17.8626 20.5912 18 20.0863 18H2.03238C1.19627 18 0.675323 17.0581 1.0966 16.3081L4.36574 10.4884C4.62016 10.0355 4.98443 9.65971 5.42227 9.39857C5.8601 9.13742 6.3562 9 6.86111 9H24.915C25.7512 9 26.2721 9.94186 25.8508 10.6919ZM6.86111 7.5H21.6667V5.25C21.6667 4.00734 20.6966 3 19.5 3H12.2778L9.38889 0H2.16667C0.970035 0 0 1.00734 0 2.25V15.2834L3.11806 9.73256C3.8916 8.35547 5.32589 7.5 6.86111 7.5Z" fill="black"/>
</svg>
