<svg width="15" height="19" viewBox="0 0 15 19">
<path d="M13.3594 2.375C13.8513 2.375 14.25 1.97626 14.25 1.48438V0.890625C14.25 0.39874 13.8513 0 13.3594 0H0.890625C0.39874 0 0 0.39874 0 0.890625V1.48438C0 1.97626 0.39874 2.375 0.890625 2.375C0.890625 5.75065 2.7838 8.5995 5.375 9.5C2.7838 10.4005 0.890625 13.2493 0.890625 16.625C0.39874 16.625 0 17.0237 0 17.5156V18.1094C0 18.6013 0.39874 19 0.890625 19H13.3594C13.8513 19 14.25 18.6013 14.25 18.1094V17.5156C14.25 17.0237 13.8513 16.625 13.3594 16.625C13.3594 13.2493 11.4662 10.4005 8.875 9.5C11.4662 8.5995 13.3594 5.75065 13.3594 2.375Z" fill="#141414" fill-opacity="0.9"/>
</svg>
