<svg width="15" height="15" viewBox="0 0 15 15">
<path d="M9.78628 5.93402C11.42 7.56942 11.3976 10.1914 9.79612 11.8017C9.79312 11.805 9.78956 11.8086 9.78628 11.8118L7.94878 13.6493C6.32812 15.27 3.69139 15.2698 2.07097 13.6493C0.450303 12.0289 0.450303 9.39191 2.07097 7.77152L3.08558 6.7569C3.35465 6.48784 3.81801 6.66667 3.83191 7.04691C3.84962 7.5315 3.93652 8.01835 4.09687 8.4885C4.15117 8.6477 4.11237 8.82379 3.99342 8.94273L3.63558 9.30058C2.86924 10.0669 2.84521 11.3147 3.60399 12.0886C4.37028 12.87 5.62978 12.8747 6.40194 12.1025L8.23944 10.2653C9.01029 9.49442 9.00707 8.24848 8.23944 7.48086C8.13825 7.37985 8.03631 7.30137 7.95668 7.24655C7.90035 7.20787 7.85384 7.15655 7.82086 7.09671C7.78788 7.03686 7.76934 6.97013 7.76673 6.90185C7.7559 6.61291 7.85827 6.31516 8.08659 6.08684L8.66229 5.51112C8.81325 5.36016 9.05008 5.34162 9.22513 5.46379C9.42561 5.60378 9.61338 5.76113 9.78628 5.93402ZM13.64 2.08014C12.0196 0.45969 9.38282 0.459471 7.76216 2.08014L5.92466 3.91764C5.92138 3.92092 5.91782 3.92447 5.91482 3.92775C4.3134 5.53808 4.29095 8.16005 5.92466 9.79545C6.09755 9.96834 6.28531 10.1257 6.48578 10.2657C6.66084 10.3878 6.89769 10.3693 7.04862 10.2183L7.62432 9.6426C7.85264 9.41428 7.95501 9.11653 7.94419 8.82759C7.94157 8.75931 7.92303 8.69258 7.89005 8.63273C7.85707 8.57289 7.81056 8.52158 7.75423 8.48289C7.67461 8.42807 7.57267 8.34959 7.47147 8.24859C6.70385 7.48096 6.70062 6.23502 7.47147 5.46417L9.30897 3.62694C10.0811 2.85478 11.3406 2.85943 12.1069 3.64089C12.8657 4.41472 12.8417 5.66252 12.0753 6.42886L11.7175 6.78671C11.5985 6.90565 11.5597 7.08175 11.614 7.24094C11.7744 7.71109 11.8613 8.19794 11.879 8.68253C11.8929 9.06277 12.3563 9.2416 12.6253 8.97254L13.6399 7.95792C15.2606 6.33756 15.2606 3.70053 13.64 2.08014Z" fill="black"/>
</svg>
