<svg width="25" height="22" viewBox="0 0 25 22">
<path d="M20.3125 0.78125C20.3125 0.349609 19.9629 0 19.5312 0H16.4062C15.9746 0 15.625 0.349609 15.625 0.78125V3.125H20.3125V0.78125ZM3.12061 6.24951C2.99805 10.832 0.168945 11.8271 0 18.1641V20.3125C0 21.1753 0.699707 21.875 1.5625 21.875H6.25C7.11279 21.875 7.8125 21.1753 7.8125 20.3125V12.5H9.375V4.6875H4.67969C3.81885 4.6875 3.14404 5.38916 3.12061 6.24951ZM21.8794 6.24951C21.856 5.38916 21.1812 4.6875 20.3203 4.6875H15.625V12.5H17.1875V20.3125C17.1875 21.1753 17.8872 21.875 18.75 21.875H23.4375C24.3003 21.875 25 21.1753 25 20.3125V18.1641C24.8311 11.8271 22.002 10.832 21.8794 6.24951ZM8.59375 0H5.46875C5.03711 0 4.6875 0.349609 4.6875 0.78125V3.125H9.375V0.78125C9.375 0.349609 9.02539 0 8.59375 0ZM10.9375 12.5H14.0625V4.6875H10.9375V12.5Z" fill="#141414"/>
</svg>
