<svg width="19" height="18" viewBox="0 0 19 18">
<path d="M16.7991 7.04309H11.0217V1.28056C11.0217 0.573451 10.4467 0 9.73779 0H8.45391C7.74497 0 7.17004 0.573451 7.17004 1.28056V7.04309H1.3926C0.683662 7.04309 0.108727 7.61654 0.108727 8.32365V9.60421C0.108727 10.3113 0.683662 10.8848 1.3926 10.8848H7.17004V16.6473C7.17004 17.3544 7.74497 17.9279 8.45391 17.9279H9.73779C10.4467 17.9279 11.0217 17.3544 11.0217 16.6473V10.8848H16.7991C17.508 10.8848 18.083 10.3113 18.083 9.60421V8.32365C18.083 7.61654 17.508 7.04309 16.7991 7.04309Z" fill="white"/>
</svg>
