<svg width="6" height="12" viewBox="0 0 6 12" fill="none" xmlns="http://www.w3.org/2000/svg">
<path d="M6.00002 1.21986V0.28276C6.00002 0.128799 5.87641 0.00345443 5.72247 0.00153255C4.95988 -0.00807685 3.90163 0.000243456 3.00001 0.889652C2.11562 0.0172357 1.10107 -0.00268621 0.279212 0.00265755C0.124641 0.00366537 0 0.129338 0 0.283908V1.21309C0 1.36982 0.127922 1.49617 0.284649 1.49429C0.893229 1.48703 2.25001 1.576 2.25001 2.62926V5.25H1.40625C1.25093 5.25 1.125 5.37593 1.125 5.53125V6.46875C1.125 6.62407 1.25093 6.75 1.40625 6.75H2.25001V9.37501C2.25001 10.4281 0.935745 10.5007 0.282423 10.4991C0.126657 10.4987 0 10.6244 0 10.7801V11.7172C0 11.8712 0.12361 11.9966 0.277548 11.9985C1.04014 12.0081 2.09839 11.9997 3.00001 11.1103C3.8844 11.9827 4.89894 12.0027 5.72081 11.9973C5.87538 11.9963 6.00002 11.8706 6.00002 11.7161V10.7869C6.00002 10.6302 5.8721 10.5038 5.71537 10.5057C5.10679 10.513 3.75001 10.4283 3.75001 9.37501V6.75H4.59376C4.74908 6.75 4.87501 6.62407 4.87501 6.46875V5.53125C4.87501 5.37593 4.74908 5.25 4.59376 5.25H3.75001V2.62926C3.75001 1.57616 5.06427 1.49926 5.7176 1.50093C5.87336 1.50135 6.00002 1.37563 6.00002 1.21986Z" fill="black"/>
</svg>
