<svg width="40" height="27">
<path d="M26.6667 0H13.3333C5.96951 0 0 5.96951 0 13.3333C0 20.6972 5.96951 26.6667 13.3333 26.6667H26.6667C34.0305 26.6667 40 20.6972 40 13.3333C40 5.96951 34.0305 0 26.6667 0ZM4.44444 13.3333C4.44444 8.42076 8.42007 4.44444 13.3333 4.44444C18.2459 4.44444 22.2222 8.42007 22.2222 13.3333C22.2222 18.2459 18.2466 22.2222 13.3333 22.2222C8.42076 22.2222 4.44444 18.2466 4.44444 13.3333ZM26.6667 22.2222H23.2705C27.7994 17.1626 27.8008 9.50556 23.2705 4.44444H26.6667C31.5792 4.44444 35.5556 8.42007 35.5556 13.3333C35.5556 18.2458 31.5799 22.2222 26.6667 22.2222Z" fill="#BE1622"/>
</svg>
