<svg width="51" height="45" viewBox="0 0 51 45" fill="none" xmlns="http://www.w3.org/2000/svg">
<path d="M49.6153 38.3295C51.2176 41.1068 49.2064 44.5784 46.0062 44.5784H4.34942C1.14308 44.5784 -0.858828 41.1014 0.740304 38.3295L21.5689 2.21597C23.172 -0.562586 27.187 -0.557551 28.7872 2.21597L49.6153 38.3295ZM25.1781 30.8631C22.9728 30.8631 21.185 32.6509 21.185 34.8562C21.185 37.0615 22.9728 38.8492 25.1781 38.8492C27.3834 38.8492 29.1711 37.0615 29.1711 34.8562C29.1711 32.6509 27.3834 30.8631 25.1781 30.8631ZM21.387 16.5102L22.0309 28.3157C22.061 28.8681 22.5178 29.3006 23.071 29.3006H27.2851C27.8383 29.3006 28.2951 28.8681 28.3252 28.3157L28.9691 16.5102C29.0017 15.9135 28.5266 15.4117 27.929 15.4117H22.427C21.8295 15.4117 21.3545 15.9135 21.387 16.5102Z" fill="black"/>
</svg>
